<svg width="30" height="30" viewBox="0 0 30 30" fill="none" xmlns="http://www.w3.org/2000/svg">
<circle cx="15" cy="15" r="15" fill="#4447E2"/>
<path fill-rule="evenodd" clip-rule="evenodd" d="M22.4933 10.8024C22.4916 10.7424 22.4741 10.6857 22.4583 10.6282C22.4458 10.5799 22.4399 10.5307 22.4191 10.4866C22.3999 10.4432 22.3674 10.4082 22.3391 10.3682C22.3041 10.3174 22.2724 10.2666 22.2274 10.2249C22.2199 10.2174 22.2166 10.2074 22.2083 10.2007C22.1783 10.1749 22.1416 10.1657 22.1091 10.1449C22.0591 10.1124 22.0099 10.0791 21.9533 10.0574C21.8974 10.0374 21.8424 10.0324 21.7849 10.0241C21.7449 10.0182 21.7091 9.99992 21.6666 9.99992H17.4999C17.0391 9.99992 16.6666 10.3732 16.6666 10.8332C16.6666 11.2932 17.0391 11.6666 17.4999 11.6666H19.8549L16.4916 15.5899L12.9283 13.4524C12.5758 13.2391 12.1224 13.3174 11.8591 13.6332L7.69242 18.6332C7.39826 18.9866 7.44576 19.5124 7.79909 19.8066C7.95576 19.9366 8.14409 19.9999 8.33242 19.9999C8.57159 19.9999 8.80826 19.8982 8.97326 19.6999L12.6833 15.2482L16.2374 17.3816C16.5866 17.5907 17.0349 17.5174 17.2991 17.2091L20.8333 13.0857V14.9999C20.8333 15.4599 21.2058 15.8332 21.6666 15.8332C22.1274 15.8332 22.4999 15.4599 22.4999 14.9999V10.8332C22.4999 10.8224 22.4941 10.8132 22.4933 10.8024Z" fill="#231F20"/>
<mask id="mask0" mask-type="alpha" maskUnits="userSpaceOnUse" x="7" y="10" width="16" height="10">
<path fill-rule="evenodd" clip-rule="evenodd" d="M22.4933 10.8024C22.4916 10.7424 22.4741 10.6857 22.4583 10.6282C22.4458 10.5799 22.4399 10.5307 22.4191 10.4866C22.3999 10.4432 22.3674 10.4082 22.3391 10.3682C22.3041 10.3174 22.2724 10.2666 22.2274 10.2249C22.2199 10.2174 22.2166 10.2074 22.2083 10.2007C22.1783 10.1749 22.1416 10.1657 22.1091 10.1449C22.0591 10.1124 22.0099 10.0791 21.9533 10.0574C21.8974 10.0374 21.8424 10.0324 21.7849 10.0241C21.7449 10.0182 21.7091 9.99992 21.6666 9.99992H17.4999C17.0391 9.99992 16.6666 10.3732 16.6666 10.8332C16.6666 11.2932 17.0391 11.6666 17.4999 11.6666H19.8549L16.4916 15.5899L12.9283 13.4524C12.5758 13.2391 12.1224 13.3174 11.8591 13.6332L7.69242 18.6332C7.39826 18.9866 7.44576 19.5124 7.79909 19.8066C7.95576 19.9366 8.14409 19.9999 8.33242 19.9999C8.57159 19.9999 8.80826 19.8982 8.97326 19.6999L12.6833 15.2482L16.2374 17.3816C16.5866 17.5907 17.0349 17.5174 17.2991 17.2091L20.8333 13.0857V14.9999C20.8333 15.4599 21.2058 15.8332 21.6666 15.8332C22.1274 15.8332 22.4999 15.4599 22.4999 14.9999V10.8332C22.4999 10.8224 22.4941 10.8132 22.4933 10.8024Z" fill="white"/>
</mask>
<g mask="url(#mask0)">
<rect x="5" y="5" width="20" height="20" fill="white"/>
</g>
</svg>
